<svg xmlns="http://www.w3.org/2000/svg" viewBox="0 0 512 512" width="512" height="512" fill="none"><defs><linearGradient id="certioGrad" x1="0" y1="0" x2="512" y2="512" gradientUnits="userSpaceOnUse"><stop offset="0" stop-color="#A855F7"/><stop offset="1" stop-color="#7E22CE"/></linearGradient></defs><rect width="512" height="512" rx="104" ry="104" fill="url(#certioGrad)"/><path d="M 406.00 256.00 A 23.47 23.47 0 0 1 398.66 302.35 A 23.47 23.47 0 0 1 377.35 344.17 A 23.47 23.47 0 0 1 344.17 377.35 A 23.47 23.47 0 0 1 302.35 398.66 A 23.47 23.47 0 0 1 256.00 406.00 A 23.47 23.47 0 0 1 209.65 398.66 A 23.47 23.47 0 0 1 167.83 377.35 A 23.47 23.47 0 0 1 134.65 344.17 A 23.47 23.47 0 0 1 113.34 302.35 A 23.47 23.47 0 0 1 106.00 256.00 A 23.47 23.47 0 0 1 113.34 209.65 A 23.47 23.47 0 0 1 134.65 167.83 A 23.47 23.47 0 0 1 167.83 134.65 A 23.47 23.47 0 0 1 209.65 113.34 A 23.47 23.47 0 0 1 256.00 106.00 A 23.47 23.47 0 0 1 302.35 113.34 A 23.47 23.47 0 0 1 344.17 134.65 A 23.47 23.47 0 0 1 377.35 167.83 A 23.47 23.47 0 0 1 398.66 209.65 A 23.47 23.47 0 0 1 406.00 256.00 Z" fill="#FFFFFF"/><g stroke="url(#certioGrad)" stroke-width="24" stroke-linecap="round"><path d="M 256 202 L 194 304"/><path d="M 256 202 L 318 304"/></g><circle cx="256" cy="194" r="38" fill="url(#certioGrad)"/><circle cx="190" cy="312" r="30" fill="url(#certioGrad)"/><circle cx="322" cy="312" r="30" fill="url(#certioGrad)"/></svg>